HIERARCHY
ROOT Hips
{
	OFFSET 0.00000 0.00000 0.00000
	CHANNELS 6 Xposition Yposition Zposition Zrotation Yrotation Xrotation 
	JOINT LHipJoint
	{
		OFFSET 0 0 0
		CHANNELS 3 Zrotation Yrotation Xrotation
		JOINT LeftHip
		{
			OFFSET 1.58895 -1.83665 0.71753
			CHANNELS 3 Zrotation Yrotation Xrotation
			JOINT LeftKnee
			{
				OFFSET 2.50528 -6.88321 0.00000
				CHANNELS 3 Zrotation Yrotation Xrotation
				JOINT LeftAnkle
				{
					OFFSET 2.63244 -7.23257 0.00000
					CHANNELS 3 Zrotation Yrotation Xrotation
					JOINT LeftToe
					{
						OFFSET 0.23691 -0.65090 1.72750
						CHANNELS 3 Zrotation Yrotation Xrotation
						End Site
						{
							OFFSET 0.00000 -0.00000 0.92561
						}
					}
				}
			}
		}
	}
	JOINT RHipJoint
	{
		OFFSET 0 0 0
		CHANNELS 3 Zrotation Yrotation Xrotation
		JOINT RightHip
		{
			OFFSET -1.51435 -1.83665 0.71753
			CHANNELS 3 Zrotation Yrotation Xrotation
			JOINT RightKnee
			{
				OFFSET -2.54551 -6.99375 0.00000
				CHANNELS 3 Zrotation Yrotation Xrotation
				JOINT RightAnkle
				{
					OFFSET -2.66027 -7.30903 0.00000
					CHANNELS 3 Zrotation Yrotation Xrotation
					JOINT RightToe
					{
						OFFSET -0.22981 -0.63138 2.03959
						CHANNELS 3 Zrotation Yrotation Xrotation
						End Site
						{
							OFFSET -0.00000 -0.00000 1.07060
						}
					}
				}
			}
		}
	}
	JOINT lowerback
	{
		OFFSET 0 0 0
		CHANNELS 3 Zrotation Yrotation Xrotation
		JOINT Chest
		{
			OFFSET -0.02651 1.86275 -0.11152
			CHANNELS 3 Zrotation Yrotation Xrotation
			JOINT Chest2
			{
				OFFSET 0.01019 1.86224 0.04087
				CHANNELS 3 Zrotation Yrotation Xrotation
				JOINT lowerneck
				{
					OFFSET 0 0 0
					CHANNELS 3 Zrotation Yrotation Xrotation
					JOINT Neck
					{
						OFFSET -0.01926 1.80512 0.08867
						CHANNELS 3 Zrotation Yrotation Xrotation
						JOINT Head
						{
							OFFSET 0.05516 1.76451 -0.38475
							CHANNELS 3 Zrotation Yrotation Xrotation
							End Site
							{
								OFFSET 0.01592 1.82587 -0.14001
							}
						}
					}
				}
				JOINT LeftCollar
				{
					OFFSET 0 0 0
					CHANNELS 3 Zrotation Yrotation Xrotation
					JOINT LeftShoulder
					{
						OFFSET 3.47116 1.51376 0.14491
CHANNELS 3 Zrotation Xrotation Yrotation
						JOINT LeftElbow
						{
OFFSET 0 -4.780950 0.000000
CHANNELS 3 Zrotation Xrotation Yrotation
							JOINT LeftWrist
							{
OFFSET 0 -3.586150 -0.000000
CHANNELS 3 Zrotation Xrotation Yrotation
								JOINT lhand
								{
									OFFSET 0 0 0
CHANNELS 3 Zrotation Xrotation Yrotation
									JOINT LFingers
									{
OFFSET 0 -0.659810 0.000000
CHANNELS 3 Zrotation Xrotation Yrotation
										End Site
										{
OFFSET 0 -0.531960 0.000000
										}
									}
								}
								JOINT LThumb
								{
OFFSET 0 0.000000 0.000000
CHANNELS 3 Zrotation Xrotation Yrotation
									End Site
									{
OFFSET 0 -0.540080 0.540080
									}
								}
							}
						}
					}
				}
				JOINT RightCollar
				{
					OFFSET 0 0 0
					CHANNELS 3 Zrotation Yrotation Xrotation
					JOINT RightShoulder
					{
						OFFSET -3.31725 1.61216 0.35156
CHANNELS 3 Zrotation Xrotation Yrotation
						JOINT RightElbow
						{
OFFSET 0 -4.489130 0.000000
CHANNELS 3 Zrotation Xrotation Yrotation
							JOINT RightWrist
							{
OFFSET 0 -3.705100 0.000000
CHANNELS 3 Zrotation Xrotation Yrotation
								JOINT rhand
								{
									OFFSET 0 0 0
CHANNELS 3 Zrotation Xrotation Yrotation
									JOINT RFingers
									{
OFFSET 0 -0.449140 0.000000
CHANNELS 3 Zrotation Xrotation Yrotation
										End Site
										{
OFFSET 0 -0.362110 0.000000
										}
									}
								}
								JOINT RThumb
								{
OFFSET 0 0.000000 0.000000
CHANNELS 3 Zrotation Xrotation Yrotation
									End Site
									{
OFFSET 0 -0.367630 0.367630
									}
								}
							}
						}
					}
				}
			}
		}
	}
}
MOTION
Frames: 6
Frame Time: 0.008333333333333333
-1.076052 18.960138 5.469754 -3.991305 6.929757 22.277477 0.000000 0.000000 0.000000 -2.774995 -13.907314 -35.690074 2.752476 10.283108 29.898620 0.442964 2.887346 -13.962225 8.971279 -16.789174 -55.990630 0.000000 0.000000 0.000000 21.484736 0.007525 -17.780981 0.000000 0.000000 0.000000 -0.489378 -8.311062 -18.773610 -0.007484 0.557261 -1.531314 10.018980 2.615077 23.543065 5.817052 6.545429 2.979254 -1.218796 2.811222 -9.412143 -9.550999 -8.113070 -1.346537 -2.985164 -10.606582 0.501512 0.486790 -5.332589 0.715297 0.000000 0.000000 0.000000 43.735117 -37.545267 -55.640910 123.277609 -55.371233 88.371300 7.355158 -23.036994 10.124027 0.000000 0.000000 0.000000 -7.125000 0.000000 0.000000 -13.908927 19.910840 -8.594266 0.000000 0.000000 0.000000 -42.292962 -29.850508 15.331105 -31.006137 -41.740012 -12.074076 -11.377464 30.872697 42.872911 0.000000 0.000000 0.000000 7.125000 0.000000 0.000000 38.528180 69.915406 -24.141285
-1.045680 18.955604 5.468122 -4.065251 7.165489 22.259016 0.000000 0.000000 0.000000 -2.721475 -14.047201 -35.872490 2.798259 10.361140 30.154178 0.439879 2.824952 -13.882665 8.938499 -16.767994 -55.877380 0.000000 0.000000 0.000000 21.544576 -0.211709 -17.818852 0.000000 0.000000 0.000000 -0.489443 -8.284165 -18.749009 -0.007509 0.559742 -1.538146 9.945077 2.732463 23.559533 5.725624 6.655277 3.099944 -1.308994 2.873609 -9.270651 -9.736674 -8.269382 -1.522336 -2.343060 -10.800736 0.375520 0.702540 -5.425157 0.762417 0.000000 0.000000 0.000000 44.469238 -39.655685 -54.654399 122.730058 -55.537366 87.920350 6.161938 -22.504962 9.641735 0.000000 0.000000 0.000000 -7.125000 0.000000 0.000000 -14.779394 20.418053 -8.994286 0.000000 0.000000 0.000000 -41.775539 -28.323273 15.165875 -31.624223 -42.245118 -12.487632 -11.247244 30.018745 43.322702 0.000000 0.000000 0.000000 7.125000 0.000000 0.000000 39.544898 70.200743 -25.082419
-1.007784 18.951520 5.465525 -4.082392 7.683710 22.327374 0.000000 0.000000 0.000000 -2.602365 -14.554173 -36.101751 2.835688 10.424156 30.361454 0.428982 2.907230 -13.780788 8.950529 -16.775834 -55.919076 0.000000 0.000000 0.000000 21.634022 -0.680262 -18.020533 0.000000 0.000000 0.000000 -0.491507 -8.245353 -18.736313 -0.005998 0.498971 -1.371130 10.061784 2.701613 23.400110 5.612819 6.600526 3.180526 -1.468867 2.855510 -9.069843 -9.855262 -8.451371 -1.339560 -1.629174 -11.089432 -0.077654 0.953263 -5.549785 0.651922 0.000000 0.000000 0.000000 45.223362 -41.659471 -53.823134 122.266354 -55.675149 87.537775 5.451047 -22.752122 9.155562 0.000000 0.000000 0.000000 -7.125000 0.000000 0.000000 -15.318478 20.908019 -9.170794 0.000000 0.000000 0.000000 -40.950156 -26.622961 15.078882 -32.505300 -42.946141 -13.083891 -11.358817 29.426228 43.514271 0.000000 0.000000 0.000000 7.125000 0.000000 0.000000 39.815530 70.376396 -25.418828
-0.982940 18.948263 5.463238 -4.357485 7.638769 22.287666 0.000000 0.000000 0.000000 -2.391854 -14.500600 -36.171240 2.867896 10.477994 30.538931 0.445847 2.844152 -13.975371 8.940961 -16.769562 -55.885795 0.000000 0.000000 0.000000 21.802161 -0.561475 -17.972367 0.000000 0.000000 0.000000 -0.491650 -8.257147 -18.748877 -0.003938 0.404754 -1.112198 9.849271 2.944799 23.534457 5.565065 6.859732 3.296048 -1.484521 2.988361 -9.006713 -10.365641 -8.632032 -1.311476 -0.586235 -11.336674 -0.323167 1.359498 -5.663775 0.680570 0.000000 0.000000 0.000000 45.766830 -43.560144 -53.149936 121.752891 -55.824384 87.113307 4.604528 -23.036433 8.918329 0.000000 0.000000 0.000000 -7.125000 0.000000 0.000000 -15.933408 21.155521 -9.475022 0.000000 0.000000 0.000000 -40.199914 -24.734780 15.054807 -33.423603 -43.652726 -13.713695 -11.800482 29.254860 43.192009 0.000000 0.000000 0.000000 7.125000 0.000000 0.000000 38.714777 70.289834 -24.577022
-0.952396 18.944038 5.456502 -4.410882 7.725081 22.323537 0.000000 0.000000 0.000000 -2.391109 -14.608504 -36.305852 2.888917 10.512985 30.654480 0.465620 2.705382 -14.162927 8.924864 -16.759098 -55.829727 0.000000 0.000000 0.000000 21.778879 -0.629497 -18.046511 0.000000 0.000000 0.000000 -0.494980 -8.234628 -18.764418 -0.003213 0.364492 -1.001524 9.678347 3.103562 23.656627 5.389105 7.009741 3.369556 -1.633014 3.064141 -8.971641 -10.849082 -8.857815 -1.289047 0.637145 -11.643871 -0.584922 1.822031 -5.808509 0.724113 0.000000 0.000000 0.000000 46.167759 -45.367806 -52.573116 121.277532 -55.959644 86.719681 3.795962 -23.413204 8.409520 0.000000 0.000000 0.000000 -7.125000 0.000000 0.000000 -16.551581 21.659270 -9.675871 0.000000 0.000000 0.000000 -39.459894 -22.928143 15.054239 -34.251500 -44.269511 -14.288588 -12.068598 29.115508 43.233694 0.000000 0.000000 0.000000 7.125000 0.000000 0.000000 38.521201 70.409557 -24.540486
-0.912965 18.942438 5.442260 -4.003804 7.854781 22.426329 0.000000 0.000000 0.000000 -2.870474 -14.981588 -36.458350 2.910032 10.547966 30.770046 0.466296 2.771036 -14.210398 8.912154 -16.750872 -55.785894 0.000000 0.000000 0.000000 21.278482 -0.918461 -18.216667 0.000000 0.000000 0.000000 -0.490209 -8.252036 -18.727502 -0.002804 0.342625 -0.941457 9.233627 3.220477 23.701197 5.142371 7.014413 3.493104 -1.661525 3.085349 -8.874133 -11.491399 -9.108907 -1.316198 1.857149 -11.973610 -0.831510 2.312578 -5.965894 0.799591 0.000000 0.000000 0.000000 46.261686 -47.261696 -52.229299 120.554373 -56.160210 86.119703 3.769409 -23.965578 7.742525 0.000000 0.000000 0.000000 -7.125000 0.000000 0.000000 -16.642729 22.300383 -9.479361 0.000000 0.000000 0.000000 -38.881545 -21.123992 15.167463 -35.424815 -45.111289 -15.114155 -11.358974 27.518059 44.132018 0.000000 0.000000 0.000000 7.125000 0.000000 0.000000 41.100981 70.814599 -26.705569
